# xmcd
#
# Track frame offsets:
#	180
#	30128
#	60097
#	80773
#	112271
#	137915
#	175427
#	201801
#	238904
#	280274
#
# Disc length: 4190 seconds
#
# Revision: 0
# Processed by: cddbd v1.5.1PL2 Copyright (c) Steve Scherf et al.
# Submitted via: audiograbber 1.83.01
#
DISCID=8c105c0a
DTITLE=Jazz eV Offenbach - Blues Night
DYEAR=1900
DGENRE=Blues
TTITLE0=The Wind and I
TTITLE1=All Your Love
TTITLE2=Little Wing
TTITLE3=Wonderful Tonight
TTITLE4=The Thrill is Gone
TTITLE5=Fever
TTITLE6=Hoochie Coochie Man
TTITLE7=Stormy Monday
TTITLE8=Summertime
TTITLE9=I Shot the Sheriff
EXTD=
EXTT0=
EXTT1=
EXTT2=
EXTT3=
EXTT4=
EXTT5=
EXTT6=
EXTT7=
EXTT8=
EXTT9=
PLAYORDER=
